<mxfile host="Electron" agent="Mozilla/5.0 (Macintosh; Intel Mac OS X 10_15_7) AppleWebKit/537.36 (KHTML, like Gecko) draw.io/24.7.17 Chrome/128.0.6613.36 Electron/32.0.1 Safari/537.36" version="24.7.17">
  <diagram name="第 1 页" id="7266m6BOKL6LPInp2yaF">
    <mxGraphModel dx="954" dy="674" grid="1" gridSize="10" guides="1" tooltips="1" connect="1" arrows="1" fold="1" page="1" pageScale="1" pageWidth="827" pageHeight="1169" math="0" shadow="0">
      <root>
        <mxCell id="0" />
        <mxCell id="1" parent="0" />
        <mxCell id="3b0khY30xmmtqdI7gW5Q-20" value="" style="rounded=0;whiteSpace=wrap;html=1;strokeColor=none;" vertex="1" parent="1">
          <mxGeometry x="40" y="50" width="860" height="440" as="geometry" />
        </mxCell>
        <mxCell id="3b0khY30xmmtqdI7gW5Q-1" value="kube-apiserver" style="shape=umlLifeline;perimeter=lifelinePerimeter;whiteSpace=wrap;html=1;container=1;dropTarget=0;collapsible=0;recursiveResize=0;outlineConnect=0;portConstraint=eastwest;newEdgeStyle={&quot;curved&quot;:0,&quot;rounded&quot;:0};fillColor=#f5f5f5;fontColor=#333333;strokeColor=#666666;" vertex="1" parent="1">
          <mxGeometry x="90" y="80" width="100" height="360" as="geometry" />
        </mxCell>
        <mxCell id="3b0khY30xmmtqdI7gW5Q-2" value="scheduler" style="shape=umlLifeline;perimeter=lifelinePerimeter;whiteSpace=wrap;html=1;container=1;dropTarget=0;collapsible=0;recursiveResize=0;outlineConnect=0;portConstraint=eastwest;newEdgeStyle={&quot;curved&quot;:0,&quot;rounded&quot;:0};fillColor=#f5f5f5;fontColor=#333333;strokeColor=#666666;" vertex="1" parent="1">
          <mxGeometry x="200" y="80" width="100" height="360" as="geometry" />
        </mxCell>
        <mxCell id="3b0khY30xmmtqdI7gW5Q-3" value="kubelet" style="shape=umlLifeline;perimeter=lifelinePerimeter;whiteSpace=wrap;html=1;container=1;dropTarget=0;collapsible=0;recursiveResize=0;outlineConnect=0;portConstraint=eastwest;newEdgeStyle={&quot;curved&quot;:0,&quot;rounded&quot;:0};fillColor=#f5f5f5;strokeColor=#666666;fontColor=#333333;" vertex="1" parent="1">
          <mxGeometry x="314" y="80" width="100" height="360" as="geometry" />
        </mxCell>
        <mxCell id="3b0khY30xmmtqdI7gW5Q-4" value="device plugin" style="shape=umlLifeline;perimeter=lifelinePerimeter;whiteSpace=wrap;html=1;container=1;dropTarget=0;collapsible=0;recursiveResize=0;outlineConnect=0;portConstraint=eastwest;newEdgeStyle={&quot;curved&quot;:0,&quot;rounded&quot;:0};fillColor=#dae8fc;strokeColor=#6c8ebf;" vertex="1" parent="1">
          <mxGeometry x="430" y="80" width="100" height="360" as="geometry" />
        </mxCell>
        <mxCell id="3b0khY30xmmtqdI7gW5Q-5" value="CRI&lt;div&gt;containerd / cri-o&lt;/div&gt;" style="shape=umlLifeline;perimeter=lifelinePerimeter;whiteSpace=wrap;html=1;container=1;dropTarget=0;collapsible=0;recursiveResize=0;outlineConnect=0;portConstraint=eastwest;newEdgeStyle={&quot;curved&quot;:0,&quot;rounded&quot;:0};fillColor=#f5f5f5;strokeColor=#666666;fontColor=#333333;" vertex="1" parent="1">
          <mxGeometry x="540" y="80" width="100" height="360" as="geometry" />
        </mxCell>
        <mxCell id="3b0khY30xmmtqdI7gW5Q-6" value="nvidia-container-runtime" style="shape=umlLifeline;perimeter=lifelinePerimeter;whiteSpace=wrap;html=1;container=1;dropTarget=0;collapsible=0;recursiveResize=0;outlineConnect=0;portConstraint=eastwest;newEdgeStyle={&quot;curved&quot;:0,&quot;rounded&quot;:0};fillColor=#d5e8d4;strokeColor=#82b366;" vertex="1" parent="1">
          <mxGeometry x="650" y="80" width="100" height="360" as="geometry" />
        </mxCell>
        <mxCell id="3b0khY30xmmtqdI7gW5Q-7" value="GPU driver" style="shape=umlLifeline;perimeter=lifelinePerimeter;whiteSpace=wrap;html=1;container=1;dropTarget=0;collapsible=0;recursiveResize=0;outlineConnect=0;portConstraint=eastwest;newEdgeStyle={&quot;curved&quot;:0,&quot;rounded&quot;:0};fillColor=#e1d5e7;strokeColor=#9673a6;" vertex="1" parent="1">
          <mxGeometry x="760" y="80" width="100" height="360" as="geometry" />
        </mxCell>
        <mxCell id="3b0khY30xmmtqdI7gW5Q-8" value="&lt;font color=&quot;#cc0000&quot;&gt;Register&lt;/font&gt;" style="html=1;verticalAlign=bottom;endArrow=block;curved=0;rounded=0;" edge="1" parent="1">
          <mxGeometry width="80" relative="1" as="geometry">
            <mxPoint x="479.5" y="149" as="sourcePoint" />
            <mxPoint x="363.5" y="149" as="targetPoint" />
          </mxGeometry>
        </mxCell>
        <mxCell id="3b0khY30xmmtqdI7gW5Q-9" value="&lt;font color=&quot;#cc0000&quot;&gt;ListAndWatch&lt;/font&gt;" style="html=1;verticalAlign=bottom;endArrow=block;curved=0;rounded=0;startArrow=none;startFill=0;" edge="1" parent="1">
          <mxGeometry width="80" relative="1" as="geometry">
            <mxPoint x="363.5" y="178" as="sourcePoint" />
            <mxPoint x="479.5" y="178" as="targetPoint" />
          </mxGeometry>
        </mxCell>
        <mxCell id="3b0khY30xmmtqdI7gW5Q-11" value="pod with GPU" style="html=1;verticalAlign=bottom;endArrow=block;curved=0;rounded=0;" edge="1" parent="1">
          <mxGeometry x="0.0072" width="80" relative="1" as="geometry">
            <mxPoint x="60" y="240" as="sourcePoint" />
            <mxPoint x="139.5" y="240" as="targetPoint" />
            <mxPoint as="offset" />
          </mxGeometry>
        </mxCell>
        <mxCell id="3b0khY30xmmtqdI7gW5Q-13" value="node info" style="html=1;verticalAlign=bottom;endArrow=none;curved=0;rounded=0;startArrow=block;startFill=1;endFill=0;" edge="1" parent="1">
          <mxGeometry width="80" relative="1" as="geometry">
            <mxPoint x="139.5" y="189" as="sourcePoint" />
            <mxPoint x="363.5" y="189" as="targetPoint" />
          </mxGeometry>
        </mxCell>
        <mxCell id="3b0khY30xmmtqdI7gW5Q-14" value="assign pod to node" style="html=1;verticalAlign=bottom;endArrow=none;curved=0;rounded=0;startArrow=block;startFill=1;endFill=0;" edge="1" parent="1">
          <mxGeometry width="80" relative="1" as="geometry">
            <mxPoint x="139.5" y="263" as="sourcePoint" />
            <mxPoint x="249.5" y="263" as="targetPoint" />
          </mxGeometry>
        </mxCell>
        <mxCell id="3b0khY30xmmtqdI7gW5Q-15" value="watch" style="html=1;verticalAlign=bottom;endArrow=block;curved=0;rounded=0;" edge="1" parent="1">
          <mxGeometry width="80" relative="1" as="geometry">
            <mxPoint x="363.5" y="295" as="sourcePoint" />
            <mxPoint x="139.5" y="295" as="targetPoint" />
            <mxPoint as="offset" />
          </mxGeometry>
        </mxCell>
        <mxCell id="3b0khY30xmmtqdI7gW5Q-16" value="&lt;font color=&quot;#cc0000&quot;&gt;Allocate&lt;/font&gt;" style="html=1;verticalAlign=bottom;endArrow=block;curved=0;rounded=0;" edge="1" parent="1">
          <mxGeometry width="80" relative="1" as="geometry">
            <mxPoint x="363.5" y="316" as="sourcePoint" />
            <mxPoint x="479.5" y="316" as="targetPoint" />
          </mxGeometry>
        </mxCell>
        <mxCell id="3b0khY30xmmtqdI7gW5Q-17" value="CRI gRPC" style="html=1;verticalAlign=bottom;endArrow=block;curved=0;rounded=0;" edge="1" parent="1">
          <mxGeometry width="80" relative="1" as="geometry">
            <mxPoint x="365" y="346" as="sourcePoint" />
            <mxPoint x="591" y="346" as="targetPoint" />
          </mxGeometry>
        </mxCell>
        <mxCell id="3b0khY30xmmtqdI7gW5Q-18" value="&lt;font color=&quot;#7f00ff&quot;&gt;low-level runtime&lt;/font&gt;" style="html=1;verticalAlign=bottom;endArrow=block;curved=0;rounded=0;" edge="1" parent="1">
          <mxGeometry width="80" relative="1" as="geometry">
            <mxPoint x="589.5" y="363" as="sourcePoint" />
            <mxPoint x="699.5" y="363" as="targetPoint" />
          </mxGeometry>
        </mxCell>
        <mxCell id="3b0khY30xmmtqdI7gW5Q-19" value="" style="html=1;verticalAlign=bottom;endArrow=block;curved=0;rounded=0;" edge="1" parent="1">
          <mxGeometry width="80" relative="1" as="geometry">
            <mxPoint x="699.5" y="380" as="sourcePoint" />
            <mxPoint x="809.5" y="380" as="targetPoint" />
          </mxGeometry>
        </mxCell>
      </root>
    </mxGraphModel>
  </diagram>
</mxfile>
